<svg width="50" height="50" viewBox="0 0 50 50" fill="none" xmlns="http://www.w3.org/2000/svg">
<path d="M12.6787 49.8232C9.70517 49.6879 8.08987 49.1931 7.01548 48.774C5.59188 48.2198 4.57693 47.56 3.50849 46.493C2.44004 45.426 1.77876 44.4111 1.22745 42.9875C0.808393 41.9131 0.31355 40.2978 0.178322 37.3243C0.0297203 34.11 0 33.1456 0 25.0022C0 16.8589 0.0326924 15.8959 0.176836 12.6787C0.312063 9.70517 0.809879 8.09285 1.22596 7.01548C1.78025 5.59188 2.44153 4.57693 3.507 3.507C4.57396 2.44004 5.58891 1.77728 7.014 1.22596C8.08839 0.806907 9.70369 0.312063 12.6772 0.176836C15.8929 0.0297203 16.8589 0 24.9993 0C33.1426 0 34.1056 0.0326924 37.3228 0.176836C40.2963 0.312063 41.9086 0.809879 42.986 1.22596C44.4096 1.77728 45.4246 2.44004 46.493 3.507C47.5614 4.57396 48.2198 5.59039 48.774 7.014C49.1931 8.08839 49.6879 9.70369 49.8232 12.6772C49.9703 15.8944 50 16.8574 50 25.0007C50 33.1411 49.9703 34.1071 49.8232 37.3243C49.6879 40.2978 49.1901 41.9131 48.774 42.9875C48.2198 44.4111 47.56 45.426 46.493 46.493C45.426 47.56 44.4096 48.2198 42.986 48.774C41.9116 49.1931 40.2963 49.6879 37.3228 49.8232C34.1085 49.9703 33.1426 50 24.9993 50C16.8589 50 15.8929 49.9718 12.6787 49.8232Z" fill="#7361E0" fill-opacity="0.3"/>
<path d="M18.8613 25.1065C18.8613 21.687 21.6325 18.9143 25.052 18.9143C28.4715 18.9143 31.2442 21.687 31.2442 25.1065C31.2442 28.526 28.4715 31.2987 25.052 31.2987C21.6325 31.2987 18.8613 28.526 18.8613 25.1065ZM15.5139 25.1065C15.5139 30.3744 19.7841 34.6447 25.052 34.6447C30.3199 34.6447 34.5902 30.3744 34.5902 25.1065C34.5902 19.8386 30.3199 15.5684 25.052 15.5684C19.7841 15.5684 15.514 19.8383 15.514 25.1065M32.7389 15.1902C32.7387 15.631 32.8693 16.0621 33.114 16.4287C33.3588 16.7954 33.7068 17.0812 34.1141 17.2501C34.5213 17.419 34.9695 17.4633 35.4019 17.3774C35.8343 17.2916 36.2316 17.0795 36.5434 16.7679C36.8553 16.4563 37.0677 16.0592 37.1539 15.6268C37.2401 15.1945 37.1961 14.7463 37.0276 14.3389C36.8591 13.9315 36.5735 13.5833 36.207 13.3382C35.8406 13.0931 35.4097 12.9622 34.9688 12.962H34.9679C34.377 12.9623 33.8103 13.1971 33.3924 13.6149C32.9744 14.0327 32.7394 14.5992 32.7389 15.1902ZM17.5476 40.2264C15.7366 40.144 14.7523 39.8423 14.0981 39.5875C13.2309 39.2498 12.6121 38.8477 11.9615 38.198C11.311 37.5483 10.9083 36.9302 10.5721 36.0629C10.3171 35.4091 10.0155 34.4244 9.93313 32.6134C9.84308 30.6555 9.8251 30.0673 9.8251 25.1068C9.8251 20.1463 9.84457 19.5598 9.93313 17.6002C10.0156 15.7892 10.3195 14.8065 10.5721 14.1507C10.9097 13.2835 11.3119 12.6647 11.9615 12.0141C12.6112 11.3635 13.2294 10.9608 14.0981 10.6247C14.752 10.3697 15.7366 10.068 17.5476 9.9857C19.5056 9.89565 20.0938 9.87767 25.052 9.87767C30.0103 9.87767 30.599 9.89684 32.5586 9.986C34.3696 10.0685 35.3523 10.3724 36.0081 10.625C36.8754 10.9611 37.4941 11.3647 38.1447 12.0144C38.7953 12.6641 39.1965 13.2838 39.5341 14.151C39.7891 14.8049 40.0908 15.7895 40.1731 17.6005C40.2632 19.5601 40.2812 20.1466 40.2812 25.1071C40.2812 30.0676 40.2632 30.6541 40.1731 32.6137C40.0907 34.4247 39.7875 35.4091 39.5341 36.0632C39.1965 36.9305 38.7944 37.5492 38.1447 38.1983C37.495 38.8474 36.8754 39.2501 36.0081 39.5877C35.3543 39.8428 34.3696 40.1444 32.5586 40.2267C30.6007 40.3168 30.0125 40.3348 25.052 40.3348C20.0915 40.3348 19.505 40.3168 17.5476 40.2267M17.3938 6.6438C15.4164 6.73386 14.0652 7.0474 12.8851 7.50658C11.6637 7.98077 10.6284 8.61694 9.59462 9.64912C8.5608 10.6813 7.92627 11.7168 7.45208 12.9396C6.9929 14.1204 6.67935 15.4709 6.5893 17.4483C6.49776 19.4289 6.47681 20.0621 6.47681 25.1065C6.47681 30.1509 6.49776 30.7841 6.5893 32.7647C6.67935 34.7423 6.9929 36.0926 7.45208 37.2734C7.92627 38.4948 8.56094 39.5322 9.59462 40.5639C10.6283 41.5957 11.6623 42.2309 12.8851 42.7065C14.0674 43.1656 15.4164 43.4792 17.3938 43.5692C19.3754 43.6593 20.0076 43.6817 25.052 43.6817C30.0964 43.6817 30.7296 43.6608 32.7102 43.5692C34.6878 43.4792 36.0381 43.1656 37.2189 42.7065C38.4403 42.2309 39.4756 41.5961 40.5094 40.5639C41.5432 39.5317 42.1764 38.4948 42.652 37.2734C43.1111 36.0926 43.4262 34.7421 43.5147 32.7647C43.6048 30.7827 43.6257 30.1509 43.6257 25.1065C43.6257 20.0621 43.6048 19.4289 43.5147 17.4483C43.4247 15.4707 43.1111 14.1197 42.652 12.9396C42.1764 11.7183 41.5416 10.6829 40.5094 9.64912C39.4772 8.6153 38.4403 7.98077 37.2204 7.50658C36.0381 7.0474 34.6876 6.73237 32.7117 6.6438C30.7308 6.5533 30.0979 6.53131 25.0542 6.53131C20.0106 6.53131 19.3762 6.55226 17.3946 6.6438" fill="#F8F7FD"/>
</svg>
