<svg width="50" height="50" viewBox="0 0 50 50" fill="none" xmlns="http://www.w3.org/2000/svg">
<path fill-rule="evenodd" clip-rule="evenodd" d="M50 6.25C50 2.80049 47.1995 0 43.75 0H6.25C2.80049 0 0 2.80049 0 6.25V43.75C0 47.1995 2.80049 50 6.25 50H43.75C47.1995 50 50 47.1995 50 43.75V6.25Z" fill="#7361E0" fill-opacity="0.3"/>
<path d="M14.3372 17.4479H5.9622V42.6395H14.3372V17.4479Z" fill="#F8F7FD"/>
<path d="M10.2062 5.30078C7.34092 5.30078 5.46875 7.18457 5.46875 9.65361C5.46875 12.0708 7.28398 14.0065 10.0954 14.0065H10.1495C13.0697 14.0065 14.8874 12.0708 14.8874 9.65361C14.8332 7.18457 13.0699 5.30078 10.2062 5.30078Z" fill="#F8F7FD"/>
<path d="M34.8904 16.8556C30.4481 16.8556 28.4582 19.2987 27.344 21.0147V17.448H18.9711C19.0821 19.811 18.9711 42.6395 18.9711 42.6395H27.3439V28.5707C27.3439 27.8177 27.398 27.0649 27.6199 26.5267C28.2242 25.0228 29.6028 23.465 31.9161 23.465C34.9446 23.465 36.1579 25.7759 36.1579 29.161V42.6395H44.5311V28.1932C44.5311 20.4552 40.3997 16.8556 34.8904 16.8556Z" fill="#F8F7FD"/>
</svg>
