<svg width="50" height="50" viewBox="0 0 50 50" fill="none" xmlns="http://www.w3.org/2000/svg">
<path d="M43.75 50H6.25C2.8 50 0 47.2 0 43.75V6.25C0 2.8 2.8 0 6.25 0H43.75C47.2 0 50 2.8 50 6.25V43.75C50 47.2 47.2 50 43.75 50Z" fill="#7361E0" fill-opacity="0.3"/>
<path d="M19.2 37.7C30.9875 37.7 37.4375 27.925 37.4375 19.4625C37.4375 19.1875 37.4375 18.9125 37.425 18.6375C38.675 17.7375 39.7625 16.6 40.625 15.3125C39.475 15.825 38.2375 16.1625 36.9375 16.325C38.2625 15.5375 39.275 14.275 39.7625 12.775C38.525 13.5125 37.15 14.0375 35.6875 14.325C34.5125 13.075 32.85 12.3 31.0125 12.3C27.475 12.3 24.6 15.175 24.6 18.7125C24.6 19.2125 24.6625 19.7 24.7625 20.175C19.4375 19.9125 14.7125 17.35 11.55 13.475C11 14.425 10.6875 15.525 10.6875 16.7C10.6875 18.925 11.825 20.8875 13.5375 22.0375C12.4875 22 11.5 21.7125 10.6375 21.2375V21.325C10.6375 24.425 12.85 27.025 15.775 27.6125C15.2375 27.7625 14.675 27.8375 14.0875 27.8375C13.675 27.8375 13.275 27.8 12.8875 27.725C13.7 30.275 16.075 32.125 18.875 32.175C16.675 33.9 13.9125 34.925 10.9125 34.925C10.4 34.925 9.8875 34.9 9.3875 34.8375C12.2125 36.6375 15.5875 37.7 19.2 37.7Z" fill="#F8F7FD"/>
</svg>
