<svg width="50" height="50" viewBox="0 0 50 50" fill="none" xmlns="http://www.w3.org/2000/svg">
<g clip-path="url(#clip0_583_128)">
<path d="M11.35 0C10.25 0.05 8.8 0.15 8.15 0.3C7.15 0.5 6.2 0.8 5.45 1.2C4.5 1.65 3.7 2.25 3 2.95C2.25 3.7 1.65 4.5 1.2 5.45C0.8 6.2 0.5 7.15 0.3 8.15C0.15 8.8 0.05 10.25 0.05 11.35C0 11.8 0 12.4 0 12.7V37.3001V38.6501C0.05 39.7501 0.15 41.2001 0.3 41.8501C0.5 42.8501 0.8 43.8001 1.2 44.5501C1.65 45.5001 2.25 46.3001 2.95 47.0001C3.7 47.7501 4.5 48.3501 5.45 48.8001C6.2 49.2001 7.15 49.5001 8.15 49.7001C8.8 49.8501 10.25 49.9501 11.35 49.9501C11.8 50.0001 12.4 50.0001 12.7 50.0001H37.3H38.65C39.75 49.9501 41.2 49.8501 41.85 49.7001C42.85 49.5001 43.8 49.2001 44.55 48.8001C45.5 48.3501 46.3 47.7501 47 47.0501C47.75 46.3001 48.35 45.5001 48.8 44.5501C49.2 43.8001 49.5 42.8501 49.7 41.8501C49.85 41.2001 49.95 39.7501 49.95 38.6501C50 38.2001 50 37.6001 50 37.3001V11.35C49.95 10.25 49.85 8.8 49.7 8.15C49.5 7.15 49.2 6.2 48.8 5.45C48.35 4.5 47.75 3.7 47.05 3C46.3 2.25 45.5 1.65 44.55 1.2C43.8 0.8 42.85 0.5 41.85 0.3C41.2 0.15 39.75 0.05 38.65 0.05C38.2 -5.82077e-09 37.6 0 37.3 0H11.35Z" fill="#7361E0" fill-opacity="0.3"/>
<path fill-rule="evenodd" clip-rule="evenodd" d="M33.6674 28.2908C33.2221 28.068 31.0326 26.9909 30.6243 26.8424C30.2161 26.6938 29.9193 26.6195 29.6225 27.0652C29.3255 27.5109 28.4721 28.5137 28.2123 28.8108C27.9525 29.1079 27.6928 29.1451 27.2475 28.9222C26.8021 28.6994 25.3672 28.2293 23.6662 26.7125C22.3424 25.5321 21.4485 24.0741 21.1888 23.6284C20.929 23.1827 21.1611 22.9418 21.3841 22.7198C21.5844 22.5205 21.8294 22.1999 22.0521 21.9399C22.2747 21.68 22.3489 21.4942 22.4974 21.1972C22.6458 20.9001 22.5716 20.64 22.4603 20.4172C22.3489 20.1943 21.4583 18.0031 21.0872 17.1117C20.7258 16.2437 20.3586 16.3611 20.0853 16.3475C19.8258 16.3346 19.5286 16.3318 19.2317 16.3318C18.9348 16.3318 18.4524 16.4433 18.0441 16.8889C17.6359 17.3346 16.4855 18.4117 16.4855 20.6029C16.4855 22.7941 18.0813 24.9111 18.3039 25.2083C18.5267 25.5055 21.4442 30.0021 25.9115 31.9306C26.974 32.3893 27.8035 32.6631 28.4503 32.8684C29.5171 33.2071 30.488 33.1594 31.2553 33.0447C32.1108 32.9169 33.89 31.9677 34.2612 30.9278C34.6322 29.8879 34.6322 28.9965 34.5209 28.8108C34.4097 28.6251 34.1128 28.5137 33.6674 28.2908ZM25.5417 39.3819H25.5357C22.8775 39.3809 20.2704 38.6671 17.996 37.3178L17.4551 36.9968L11.8483 38.4671L13.3449 33.0023L12.9926 32.4422C11.5098 30.0843 10.7267 27.3591 10.7277 24.5609C10.731 16.3958 17.3765 9.75283 25.5477 9.75283C29.5044 9.75439 33.2237 11.2969 36.0206 14.096C38.8175 16.8951 40.3569 20.6159 40.3555 24.5729C40.3521 32.7386 33.7067 39.3819 25.5417 39.3819ZM38.1493 11.9689C34.7844 8.60117 30.3094 6.74561 25.5416 6.74365C15.7179 6.74365 7.72246 14.7359 7.71856 24.5598C7.71729 27.7 8.53789 30.7654 10.0976 33.4672L7.56905 42.7001L17.0173 40.2226C19.6205 41.642 22.5515 42.3899 25.5345 42.3912H25.5418C35.3647 42.3912 43.3606 34.3979 43.3647 24.574C43.3665 19.8132 41.5145 15.3367 38.1493 11.9689Z" fill="#F8F7FD"/>
</g>
<defs>
<clipPath id="clip0_583_128">
<rect width="50" height="50" fill="white"/>
</clipPath>
</defs>
</svg>
